<?xml version="1.0" encoding="utf-8"?>
<!-- Generator: Adobe Illustrator 21.1.0, SVG Export Plug-In . SVG Version: 6.00 Build 0)  -->
<svg version="1.1" id="Layer_1" xmlns="http://www.w3.org/2000/svg" xmlns:xlink="http://www.w3.org/1999/xlink" x="0px" y="0px"
	 viewBox="0 0 126.3 42.8" style="enable-background:new 0 0 126.3 42.8;" xml:space="preserve">
<style type="text/css">
	.st0{clip-path:url(#SVGID_2_);fill:#6D6E71;}
	.st1{clip-path:url(#SVGID_2_);fill:#44ADE2;}
	.st2{clip-path:url(#SVGID_4_);fill:#44ADE2;}
	.st3{clip-path:url(#SVGID_4_);fill-rule:evenodd;clip-rule:evenodd;fill:#44ADE2;}
	.st4{clip-path:url(#SVGID_6_);fill:#6D6E71;}
</style>
<g>
	<defs>
		<rect id="SVGID_1_" y="0" width="126.3" height="42.8"/>
	</defs>
	<clipPath id="SVGID_2_">
		<use xlink:href="#SVGID_1_"  style="overflow:visible;"/>
	</clipPath>
	<path class="st0" d="M32.3,36.5c-4.9,0-7.3-2-7.3-5.4c0-4.7,4.5-6,10-6.6v-1c0-2.3-1.5-2.9-3.5-2.9c-1.7,0-3.4,0.6-4.5,1.1
		l-0.9-2.3c1.2-0.6,3.3-1.4,6.1-1.4c3.7,0,6.6,1.6,6.6,6.1v11C37.3,36,35.1,36.5,32.3,36.5 M35,26.4c-3.8,0.5-6.1,1.3-6.1,4.5
		c0,2.3,1.4,3.3,3.7,3.3c0.9,0,1.8-0.2,2.4-0.5V26.4z"/>
	<path class="st0" d="M45.4,12.3v24.1h-4V17.2C41.4,17.2,40.8,12.3,45.4,12.3"/>
	<path class="st0" d="M71.6,36.5c-5,0-7.4-4-7.4-9.2c0-5.3,2.4-9.3,7.4-9.3c5,0,7.4,3.9,7.4,9.3C79,32.5,76.5,36.5,71.6,36.5
		 M71.6,20.6c-2.8,0-3.4,3.3-3.4,6.7c0,3.4,0.6,6.5,3.4,6.5c2.9,0,3.4-3.1,3.4-6.5C75,23.8,74.4,20.6,71.6,20.6"/>
	<path class="st1" d="M84.9,36.5c-2.1,0-3.9-0.6-4.9-1.3l1.1-2.6c0.7,0.5,1.9,1,3.3,1c1.7,0,2.7-1.1,2.7-2.5c0-1.5-0.8-2.2-2.6-2.9
		c-3.4-1.3-4.1-3.1-4.1-5c0-2.8,2.2-5.2,5.7-5.2c2,0,3.5,0.5,4.6,1.3l-1,2.3c-0.5-0.4-1.6-1-2.8-1c-1.7,0-2.5,1.1-2.5,2.3
		c0,1.5,1.1,2.2,2.6,2.8c3.5,1.4,4.3,3.2,4.3,5.3C91.3,34,88.8,36.5,84.9,36.5"/>
	<path class="st1" d="M96.4,28.7c0.3,3.3,1.9,5,4.9,5c2,0,3.5-0.5,4.5-1l1,2.5c-1.3,0.7-3.2,1.3-5.9,1.3c-5.1,0-8.3-3.3-8.3-9.3
		c0-5.8,2.9-9.2,7.6-9.2c4.7,0,7.3,3.1,7.1,9.1L96.4,28.7z M100.1,20.5c-2.3,0-4,1.9-3.9,6.2l7.4-1.1
		C103.6,22,102.3,20.5,100.1,20.5"/>
</g>
<g>
	<defs>
		<rect id="SVGID_3_" y="2.1" width="120.1" height="40.7"/>
	</defs>
	<clipPath id="SVGID_4_">
		<use xlink:href="#SVGID_3_"  style="overflow:visible;"/>
	</clipPath>
	<path class="st2" d="M115.9,36.5c-4.1,0-7-3.4-7-9.3c0-5.9,3.1-9.2,7.1-9.2c2.2,0,3.5,0.7,4.1,1.2l-0.9,2.3
		c-0.5-0.4-1.2-0.8-2.4-0.8c-2.7,0-3.9,2.5-3.9,6.4c0,3.9,1.4,6.4,3.8,6.4c1.1,0,1.9-0.3,2.4-0.8l0.9,2.5
		C119.4,35.9,118,36.5,115.9,36.5"/>
	<path class="st3" d="M11.7,2.1C5.3,2.1,0,7.4,0,13.9c0,1.5,0.3,2.9,0.8,4.2c-0.7-8,7.8-13,11.5-13.1l0,0v14H9.1v-2.3H5.5
		c-0.1,0,0.3-1.5,0.5-1.5h3.2v-6C5.7,10.4-1.7,19.2,6.6,24.4c1.7,0.8,3.6,1.3,5.6,1.2c6-0.2,11-5.3,11.2-11.3
		C23.7,7.6,18.4,2.1,11.7,2.1"/>
</g>
<g>
	<defs>
		<rect id="SVGID_5_" y="0" width="126.3" height="42.8"/>
	</defs>
	<clipPath id="SVGID_6_">
		<use xlink:href="#SVGID_5_"  style="overflow:visible;"/>
	</clipPath>
	<path class="st4" d="M62,36V19.3c-1.1-0.7-3.2-1.3-5.8-1.3c-5.8,0-8.6,3.8-8.6,9.6c0,5.4,2.9,8.7,7.2,8.7c1.5,0,2.6-0.3,3.3-0.7
		v0.6c0,0,0,0.3,0,0.3c-0.2,2-1.4,3.3-4.1,3.3c-1.7,0-3.2-0.5-4.3-1.1l-1.1,2.6c1.3,0.8,3.5,1.3,6.1,1.3c4.1,0,6.9-2.1,7.3-6.2
		c0,0,0-0.2,0-0.3C62,36.2,62,36,62,36 M58.1,33.4c-0.6,0.3-1.4,0.6-2.3,0.6c-3,0-4.2-2.2-4.2-6.5c0-4.5,1.3-7,4.4-7
		c0.9,0,1.6,0.1,2.1,0.4V33.4z"/>
</g>
</svg>
